<mxfile host="app.diagrams.net" modified="2023-08-29T14:47:23.482Z" agent="Mozilla/5.0 (Macintosh; Intel Mac OS X 10_15_7) AppleWebKit/537.36 (KHTML, like Gecko) Chrome/116.0.0.0 Safari/537.36" etag="zIz_otNWmZAQNPwY008E" version="21.6.9" type="device">
  <diagram name="Page-1" id="13e1069c-82ec-6db2-03f1-153e76fe0fe0">
    <mxGraphModel dx="703" dy="395" grid="1" gridSize="10" guides="1" tooltips="1" connect="1" arrows="1" fold="1" page="1" pageScale="1" pageWidth="1100" pageHeight="850" background="none" math="0" shadow="0">
      <root>
        <mxCell id="0" />
        <mxCell id="1" parent="0" />
        <mxCell id="7baba1c4bc27f4b0-2" value=":GPU" style="shape=umlLifeline;perimeter=lifelinePerimeter;whiteSpace=wrap;html=1;container=1;collapsible=0;recursiveResize=0;outlineConnect=0;rounded=1;shadow=0;comic=0;labelBackgroundColor=none;strokeWidth=1;fontFamily=Verdana;fontSize=12;align=center;" parent="1" vertex="1">
          <mxGeometry x="220" y="80" width="105" height="580" as="geometry" />
        </mxCell>
        <mxCell id="7baba1c4bc27f4b0-10" value="" style="html=1;points=[];perimeter=orthogonalPerimeter;rounded=0;shadow=0;comic=0;labelBackgroundColor=none;strokeWidth=1;fontFamily=Verdana;fontSize=12;align=center;" parent="7baba1c4bc27f4b0-2" vertex="1">
          <mxGeometry x="47.5" y="180" width="10" height="60" as="geometry" />
        </mxCell>
        <mxCell id="8W1lwHwHMB5QA3vFqTxy-6" value="Execute instruction" style="text;html=1;strokeColor=none;fillColor=none;align=center;verticalAlign=middle;whiteSpace=wrap;rounded=0;" vertex="1" parent="7baba1c4bc27f4b0-2">
          <mxGeometry x="57.5" y="180" width="60" height="30" as="geometry" />
        </mxCell>
        <mxCell id="8W1lwHwHMB5QA3vFqTxy-21" value="" style="html=1;points=[];perimeter=orthogonalPerimeter;outlineConnect=0;targetShapes=umlLifeline;portConstraint=eastwest;newEdgeStyle={&quot;edgeStyle&quot;:&quot;elbowEdgeStyle&quot;,&quot;elbow&quot;:&quot;vertical&quot;,&quot;curved&quot;:0,&quot;rounded&quot;:0};" vertex="1" parent="7baba1c4bc27f4b0-2">
          <mxGeometry x="47.5" y="380" width="10" height="50" as="geometry" />
        </mxCell>
        <mxCell id="8W1lwHwHMB5QA3vFqTxy-27" value="" style="endArrow=classic;html=1;rounded=0;exitX=0.463;exitY=1.031;exitDx=0;exitDy=0;exitPerimeter=0;dashed=1;" edge="1" parent="7baba1c4bc27f4b0-2" target="7baba1c4bc27f4b0-8">
          <mxGeometry width="50" height="50" relative="1" as="geometry">
            <mxPoint x="47.499999999999886" y="240" as="sourcePoint" />
            <mxPoint x="-74.38641025641027" y="240" as="targetPoint" />
            <Array as="points">
              <mxPoint x="-10" y="270" />
            </Array>
          </mxGeometry>
        </mxCell>
        <mxCell id="8W1lwHwHMB5QA3vFqTxy-30" value="" style="endArrow=classic;html=1;rounded=0;dashed=1;" edge="1" parent="7baba1c4bc27f4b0-2">
          <mxGeometry width="50" height="50" relative="1" as="geometry">
            <mxPoint x="127.5" y="240" as="sourcePoint" />
            <mxPoint x="57.5" y="240" as="targetPoint" />
          </mxGeometry>
        </mxCell>
        <mxCell id="8W1lwHwHMB5QA3vFqTxy-31" value="Meet DEI/DEO" style="edgeLabel;html=1;align=center;verticalAlign=middle;resizable=0;points=[];" vertex="1" connectable="0" parent="8W1lwHwHMB5QA3vFqTxy-30">
          <mxGeometry x="-0.0897" relative="1" as="geometry">
            <mxPoint x="14" y="15" as="offset" />
          </mxGeometry>
        </mxCell>
        <mxCell id="8W1lwHwHMB5QA3vFqTxy-34" value="" style="endArrow=classic;html=1;rounded=0;exitX=0.463;exitY=1.031;exitDx=0;exitDy=0;exitPerimeter=0;dashed=1;" edge="1" parent="7baba1c4bc27f4b0-2">
          <mxGeometry width="50" height="50" relative="1" as="geometry">
            <mxPoint x="47.499999999999886" y="430" as="sourcePoint" />
            <mxPoint x="-70" y="460" as="targetPoint" />
            <Array as="points">
              <mxPoint x="-10" y="460" />
            </Array>
          </mxGeometry>
        </mxCell>
        <mxCell id="8W1lwHwHMB5QA3vFqTxy-37" value="" style="endArrow=classic;html=1;rounded=0;dashed=1;" edge="1" parent="7baba1c4bc27f4b0-2">
          <mxGeometry width="50" height="50" relative="1" as="geometry">
            <mxPoint x="127.5" y="430" as="sourcePoint" />
            <mxPoint x="57.5" y="430" as="targetPoint" />
          </mxGeometry>
        </mxCell>
        <mxCell id="8W1lwHwHMB5QA3vFqTxy-38" value="Program has &lt;br&gt;finished running&amp;nbsp;" style="edgeLabel;html=1;align=center;verticalAlign=middle;resizable=0;points=[];" vertex="1" connectable="0" parent="8W1lwHwHMB5QA3vFqTxy-37">
          <mxGeometry x="-0.0897" relative="1" as="geometry">
            <mxPoint x="22" y="-20" as="offset" />
          </mxGeometry>
        </mxCell>
        <mxCell id="7baba1c4bc27f4b0-8" value=":CPU" style="shape=umlLifeline;perimeter=lifelinePerimeter;whiteSpace=wrap;html=1;container=1;collapsible=0;recursiveResize=0;outlineConnect=0;rounded=1;shadow=0;comic=0;labelBackgroundColor=none;strokeWidth=1;fontFamily=Verdana;fontSize=12;align=center;" parent="1" vertex="1">
          <mxGeometry x="100" y="80" width="100" height="580" as="geometry" />
        </mxCell>
        <mxCell id="7baba1c4bc27f4b0-9" value="" style="html=1;points=[];perimeter=orthogonalPerimeter;rounded=0;shadow=0;comic=0;labelBackgroundColor=none;strokeWidth=1;fontFamily=Verdana;fontSize=12;align=center;" parent="7baba1c4bc27f4b0-8" vertex="1">
          <mxGeometry x="45" y="140" width="10" height="40" as="geometry" />
        </mxCell>
        <mxCell id="8W1lwHwHMB5QA3vFqTxy-9" value="" style="html=1;points=[];perimeter=orthogonalPerimeter;outlineConnect=0;targetShapes=umlLifeline;portConstraint=eastwest;newEdgeStyle={&quot;edgeStyle&quot;:&quot;elbowEdgeStyle&quot;,&quot;elbow&quot;:&quot;vertical&quot;,&quot;curved&quot;:0,&quot;rounded&quot;:0};" vertex="1" parent="7baba1c4bc27f4b0-8">
          <mxGeometry x="45" y="270" width="10" height="80" as="geometry" />
        </mxCell>
        <mxCell id="8W1lwHwHMB5QA3vFqTxy-15" value="" style="endArrow=classic;html=1;rounded=0;verticalAlign=top;horizontal=0;" edge="1" parent="7baba1c4bc27f4b0-8">
          <mxGeometry width="50" height="50" relative="1" as="geometry">
            <mxPoint x="45" y="300" as="sourcePoint" />
            <mxPoint x="-40" y="300" as="targetPoint" />
          </mxGeometry>
        </mxCell>
        <mxCell id="8W1lwHwHMB5QA3vFqTxy-17" value="Output" style="edgeLabel;html=1;align=center;verticalAlign=middle;resizable=0;points=[];" vertex="1" connectable="0" parent="8W1lwHwHMB5QA3vFqTxy-15">
          <mxGeometry x="0.027" relative="1" as="geometry">
            <mxPoint x="-1" y="-10" as="offset" />
          </mxGeometry>
        </mxCell>
        <mxCell id="8W1lwHwHMB5QA3vFqTxy-16" value="" style="endArrow=classic;html=1;rounded=0;" edge="1" parent="7baba1c4bc27f4b0-8">
          <mxGeometry width="50" height="50" relative="1" as="geometry">
            <mxPoint x="-40" y="320" as="sourcePoint" />
            <mxPoint x="45" y="320.0000000000001" as="targetPoint" />
          </mxGeometry>
        </mxCell>
        <mxCell id="8W1lwHwHMB5QA3vFqTxy-18" value="Input" style="edgeLabel;html=1;align=center;verticalAlign=middle;resizable=0;points=[];" vertex="1" connectable="0" parent="8W1lwHwHMB5QA3vFqTxy-16">
          <mxGeometry x="0.0989" relative="1" as="geometry">
            <mxPoint x="-7" y="-10" as="offset" />
          </mxGeometry>
        </mxCell>
        <mxCell id="8W1lwHwHMB5QA3vFqTxy-22" value="" style="html=1;points=[];perimeter=orthogonalPerimeter;outlineConnect=0;targetShapes=umlLifeline;portConstraint=eastwest;newEdgeStyle={&quot;edgeStyle&quot;:&quot;elbowEdgeStyle&quot;,&quot;elbow&quot;:&quot;vertical&quot;,&quot;curved&quot;:0,&quot;rounded&quot;:0};" vertex="1" parent="7baba1c4bc27f4b0-8">
          <mxGeometry x="45" y="90" width="10" height="30" as="geometry" />
        </mxCell>
        <mxCell id="8W1lwHwHMB5QA3vFqTxy-33" value="" style="html=1;points=[];perimeter=orthogonalPerimeter;outlineConnect=0;targetShapes=umlLifeline;portConstraint=eastwest;newEdgeStyle={&quot;edgeStyle&quot;:&quot;elbowEdgeStyle&quot;,&quot;elbow&quot;:&quot;vertical&quot;,&quot;curved&quot;:0,&quot;rounded&quot;:0};" vertex="1" parent="7baba1c4bc27f4b0-8">
          <mxGeometry x="45" y="460" width="10" height="40" as="geometry" />
        </mxCell>
        <mxCell id="8W1lwHwHMB5QA3vFqTxy-3" value="" style="endArrow=classic;html=1;rounded=0;" edge="1" parent="1" source="7baba1c4bc27f4b0-8" target="7baba1c4bc27f4b0-2">
          <mxGeometry width="50" height="50" relative="1" as="geometry">
            <mxPoint x="210" y="290" as="sourcePoint" />
            <mxPoint x="320" y="330" as="targetPoint" />
            <Array as="points">
              <mxPoint x="220" y="260" />
            </Array>
          </mxGeometry>
        </mxCell>
        <mxCell id="8W1lwHwHMB5QA3vFqTxy-4" value="Create kernel &lt;br&gt;and execute" style="edgeLabel;html=1;align=center;verticalAlign=middle;resizable=0;points=[];" vertex="1" connectable="0" parent="8W1lwHwHMB5QA3vFqTxy-3">
          <mxGeometry x="-0.2429" y="3" relative="1" as="geometry">
            <mxPoint x="15" y="-17" as="offset" />
          </mxGeometry>
        </mxCell>
        <mxCell id="8W1lwHwHMB5QA3vFqTxy-19" value="" style="endArrow=classic;html=1;rounded=0;" edge="1" parent="1" target="7baba1c4bc27f4b0-2">
          <mxGeometry width="50" height="50" relative="1" as="geometry">
            <mxPoint x="150" y="430" as="sourcePoint" />
            <mxPoint x="272" y="430" as="targetPoint" />
            <Array as="points">
              <mxPoint x="220" y="460" />
            </Array>
          </mxGeometry>
        </mxCell>
        <mxCell id="8W1lwHwHMB5QA3vFqTxy-20" value="Write Memory" style="edgeLabel;html=1;align=center;verticalAlign=middle;resizable=0;points=[];" vertex="1" connectable="0" parent="8W1lwHwHMB5QA3vFqTxy-19">
          <mxGeometry x="-0.2429" y="3" relative="1" as="geometry">
            <mxPoint x="34" y="-6" as="offset" />
          </mxGeometry>
        </mxCell>
        <mxCell id="8W1lwHwHMB5QA3vFqTxy-2" value="Prepare the GPU environment" style="text;html=1;strokeColor=none;fillColor=none;align=center;verticalAlign=middle;whiteSpace=wrap;rounded=0;" vertex="1" parent="1">
          <mxGeometry x="45" y="200" width="100" height="30" as="geometry" />
        </mxCell>
        <mxCell id="8W1lwHwHMB5QA3vFqTxy-23" value="" style="endArrow=classic;html=1;rounded=0;" edge="1" parent="1" source="8W1lwHwHMB5QA3vFqTxy-22" target="7baba1c4bc27f4b0-2">
          <mxGeometry width="50" height="50" relative="1" as="geometry">
            <mxPoint x="145" y="200" as="sourcePoint" />
            <mxPoint x="267" y="200" as="targetPoint" />
            <Array as="points">
              <mxPoint x="215" y="200" />
              <mxPoint x="240" y="210" />
            </Array>
          </mxGeometry>
        </mxCell>
        <mxCell id="8W1lwHwHMB5QA3vFqTxy-24" value="Write Memory" style="edgeLabel;html=1;align=center;verticalAlign=middle;resizable=0;points=[];" vertex="1" connectable="0" parent="8W1lwHwHMB5QA3vFqTxy-23">
          <mxGeometry x="-0.2429" y="3" relative="1" as="geometry">
            <mxPoint x="17" y="-7" as="offset" />
          </mxGeometry>
        </mxCell>
        <mxCell id="8W1lwHwHMB5QA3vFqTxy-28" value="Read Memory" style="text;html=1;strokeColor=none;fillColor=none;align=center;verticalAlign=middle;whiteSpace=wrap;rounded=0;" vertex="1" parent="1">
          <mxGeometry x="160" y="310" width="90" height="30" as="geometry" />
        </mxCell>
        <mxCell id="8W1lwHwHMB5QA3vFqTxy-36" value="Read Memory" style="text;html=1;strokeColor=none;fillColor=none;align=center;verticalAlign=middle;whiteSpace=wrap;rounded=0;" vertex="1" parent="1">
          <mxGeometry x="150" y="495" width="90" height="30" as="geometry" />
        </mxCell>
      </root>
    </mxGraphModel>
  </diagram>
</mxfile>
